<svg id="Layer_1" height="512" viewBox="0 0 512 512" width="512" xmlns="http://www.w3.org/2000/svg" data-name="Layer 1"><path d="m458.547 70.976c.372 0 .747-.01 1.123-.029a21.741 21.741 0 1 0 -1.123.029z"/><path d="m31.789 213.263c-7.309 16.123-.855 39.9 15.013 55.3a58.3 58.3 0 0 0 34.047 16.029c15.656 1.866 32.987-1.788 51.517-10.862a140.781 140.781 0 0 0 34.145-23.769l1.363-1.274a55.255 55.255 0 0 0 -20.011-1.9c-7.4 7.714-25.824 22.78-59.437 26.505-6.382.706-21.313-1.061-32.214-12.805-11.156-12.021-14.528-30.338-10.022-54.443 2.168-11.593-.1-21.221-6.561-27.843a25.487 25.487 0 0 0 -16.506-7.645c12.835 11.109 16.017 26.492 8.666 42.707z"/><path d="m199.661 126.9c3.079 1.729 8.216 1.6 11.535.135a36.188 36.188 0 0 1 -3.675-6.591 14.229 14.229 0 0 1 1.113-13.088 14.057 14.057 0 0 1 11.214-6.528 20.056 20.056 0 0 1 14.691 5.883c5.881 5.579 9.429 14.137 9.488 22.893.142 20.628-13.328 42.531-18.572 50.272q1.758 2.7 3.444 5.473c8.789-10.412 37.071-47.762 17.2-76.218-8.525-12.2-23.722-18.209-37.819-14.941-7.229 1.675-15.838 7.373-16.31 17.918-.285 6.302 2.663 11.97 7.691 14.792z"/><path d="m64.605 360.176c12.527-.522 25.575-11.087 31.493-20.763a.638.638 0 0 0 .123-.48c-20.986 8.655-30.662 3.4-35.087-2.535-4.658-6.248-5.584-14.786-2.3-21.247 1.886-3.711 6.8-9.953 18.469-9.8 5.1.035 10.163.351 15.062.656 10.974.683 21.341 1.329 31.023-1.139 37.429-9.545 56.705-34.032 60.778-39.75-.068-3.325-.262-6.439-.547-9.331l-1.845-1.107c-1.167-.7-2.359-1.347-3.566-1.959l-4.865 4.548a150.809 150.809 0 0 1 -36.577 25.446c-16.785 8.219-33.07 12.3-48.056 12.3a72.76 72.76 0 0 1 -25.168-4.326c-5.585 4.391-20.742 17.663-23.553 34.291-1.512 8.939.836 17.725 6.98 26.113 4.631 6.322 10.583 9.386 17.636 9.083z"/><path d="m271.815 196.773a101.7 101.7 0 0 0 11.846-11.305c7.353-8.08 18.454-22.239 29.584-43.807 17.147-33.226 33.406-50.872 48.328-52.447a16.323 16.323 0 0 1 17.88 17.833c-.961 8.92-8.822 13.991-16.263 16.49a9.283 9.283 0 0 0 6.515 1.84c8.663-.6 18.891-10.28 22.334-21.129 2.242-7.064 2.668-17.319-8.036-26.052-8.976-7.323-18.7-9.842-28.91-7.487-20.6 4.752-42.259 28.775-59.424 65.91-18.406 39.818-41.864 53.222-56.093 57.724a227.1 227.1 0 0 1 32.239 2.43z"/><path d="m478.014 314.4a32.38 32.38 0 0 0 -.481-25.067c-2.6 13.961-11.784 26.859-25.149 34.533-23.7 13.611-58.188 5.7-85.893-.666-4.635-1.064-9.011-2.069-13.086-2.913-7.385-1.531-18.754.009-30.789 1.64-14.045 1.9-28.57 3.867-40.86 1.739-15.256-2.643-24.256-11.366-26.737-25.93-3.072-18-6.758-33-10.958-44.559a36.815 36.815 0 0 0 -21.418-21.714c2.692 11.841 5.065 31.486 1.441 58.613.587 4.135 5.1 30.885 24.869 45.221 12.4 8.991 28.582 11.491 48.106 7.425 51.844-10.792 85.686-2.248 101.246 3.806a64.715 64.715 0 0 0 37.956 3.167c12.952-2.957 34.668-16.868 41.753-35.295z"/><path d="m440.553 220.091c-4.886 3.063-9.268 5.93-13.506 8.7-29.939 19.582-46.457 30.377-107.67 21.8-16.18-.633-32.385-5.235-49.8-12.1-1.041-.411-2.122-.876-3.215-1.383l-1.616-.751a48.755 48.755 0 0 0 -23.032-4.461 46.45 46.45 0 0 1 11.746 17.868c.7 1.927 1.383 3.951 2.054 6.05a170.869 170.869 0 0 0 57.517 21.853c46.777 8.666 90.9-2.885 131.131-34.336 11.771-9.2 19.325-12.34 26.1-10.836 6.549 1.458 10.808 6.82 15.587 15.477 4.706-9.227 3.957-19.026-2.427-26.346-7.976-9.143-24.322-13.164-42.869-1.535z"/><path d="m145.576 236.96a66.081 66.081 0 0 1 36.078 6.309 66.279 66.279 0 0 0 -4.148-13.246 5 5 0 0 1 8.948-4.463c.69 1.377 16.7 34.332.822 87.169-7.56 25.154 3.064 55.483 26.438 75.471 22.7 19.407 50.57 23.419 76.5 11.015 3.176-1.727 43.807-22.924 88.6-3.257 12.772 5.607 23.982 5.082 33.323-1.563a40.693 40.693 0 0 0 8.086-7.778c-12.607 4.863-28.852 4.887-44.689-4.863-25.843-15.907-59.036-14.694-101.476 3.708-13.8 5.981-28.217 3.652-40.6-6.561-18.809-15.513-28.391-45.174-22.782-70.528 9.863-44.587 3.5-75.708-1.248-85.933a5 5 0 0 1 9.048-4.259c.077.164.37.8.8 1.9a46.872 46.872 0 0 1 10.457 3.574 58.735 58.735 0 0 1 39.227 3.636l1.616.751c.915.424 1.815.812 2.673 1.151 39.745 15.674 70.764 18.659 111.7-12.476 11.662-8.87 17.023-23.1 22.206-36.861 3.124-8.293 6.075-16.125 10.315-22.619 6.465-9.9 19.067-15.094 29.964-12.344 8.184 2.064 13.681 8.363 14.948 17 7-12.488 5.123-23.645-5.617-33.866-7.409-7.05-15.467-9.378-24.625-7.12-15.983 3.94-39.244 25.927-48.955 54.577a62.669 62.669 0 0 1 -32.079 36.808c-14.617 7.058-31.305 8.128-45.79 2.934-33.21-11.908-66.321-11.043-72.627-10.746a7.05 7.05 0 0 1 -6.5-3.715c-14.756-27.81-35.1-50.544-57.285-64.013-19.9-12.08-39.559-15.67-53.947-9.845-12.095 4.9-24.665 18.293-32.024 34.13-8.789 18.907-10.461 36.177-4.707 48.627 9.031 19.541 36.721 30.764 67.35 27.296zm41.249-58.176a16.207 16.207 0 1 1 -16.239 16.207 16.242 16.242 0 0 1 16.239-16.207zm-90.611-19.3c5.5-6.935 14.466-16.181 25.991-20.847a48.418 48.418 0 0 1 15.377-3.359 5 5 0 0 1 .584 9.984 38.443 38.443 0 0 0 -12.209 2.644c-7.414 3-15.194 9.32-21.9 17.789a5 5 0 0 1 -7.838-6.211zm-11.351 18.336c.832-1.79 1.756-3.608 2.746-5.405a5 5 0 0 1 8.758 4.828c-.88 1.6-1.7 3.208-2.433 4.79a5 5 0 0 1 -9.071-4.213z"/><path d="m186.825 201.2a6.207 6.207 0 1 0 -6.239-6.207 6.23 6.23 0 0 0 6.239 6.207z"/><path d="m290.855 79.028q.422 0 .848-.021a16.454 16.454 0 1 0 -.848.021z"/><path d="m203.452 433.269a25.6 25.6 0 0 0 1.3 51.171c.439 0 .882-.011 1.325-.034a25.6 25.6 0 1 0 -2.62-51.137z"/><path d="m137.74 368.087a16.414 16.414 0 0 0 .83 32.807c.282 0 .566-.008.85-.022a16.424 16.424 0 0 0 15.58-17.231 16.448 16.448 0 0 0 -17.26-15.554z"/></svg>