<?xml version="1.0" encoding="iso-8859-1"?>
<!-- Generator: Adobe Illustrator 19.0.0, SVG Export Plug-In . SVG Version: 6.00 Build 0)  -->
<svg version="1.1" id="Capa_1" xmlns="http://www.w3.org/2000/svg" xmlns:xlink="http://www.w3.org/1999/xlink" x="0px" y="0px"
	 viewBox="0 0 512 512" style="enable-background:new 0 0 512 512;" xml:space="preserve">
<g>
	<g>
		<path d="M268.58,304.36c-7.18,0-13,5.82-13,13c-0.006,33.651-27.289,60.925-60.94,60.92c-33.651-0.006-60.926-27.289-60.92-60.94
			c0.006-33.647,27.283-60.92,60.93-60.92c7.18,0,13-5.82,13-13s-5.82-13-13-13c-48.002,0.033-86.907,38.938-86.94,86.94
			c0,48.013,38.922,86.935,86.935,86.935s86.935-38.922,86.935-86.935C281.58,310.18,275.76,304.36,268.58,304.36z"/>
	</g>
</g>
<g>
	<g>
		<path d="M371.86,347.26c-1.24-7.072-7.978-11.8-15.05-10.56l-27.21,4.77c-4.977,0.872-8.998,4.55-10.31,9.43
			c-2.901,10.768-7.194,21.112-12.77,30.77c-2.542,4.388-2.3,9.854,0.62,14l15.88,22.63c2.222,3.152,1.85,7.446-0.88,10.17
			l-16.32,16.32c-2.72,2.728-7.008,3.104-10.16,0.89l-22.63-15.88c-4.146-2.92-9.612-3.162-14-0.62
			c-9.657,5.577-20.001,9.87-30.77,12.77c-4.88,1.312-8.558,5.333-9.43,10.31L214,479.44c-0.661,3.795-3.958,6.564-7.81,6.56H183.1
			c-3.852,0.004-7.148-2.765-7.81-6.56l-4.77-27.2c-0.872-4.977-4.55-8.998-9.43-10.31c-10.771-2.901-21.118-7.194-30.78-12.77
			c-4.388-2.542-9.854-2.3-14,0.62l-22.59,15.87c-3.152,2.222-7.446,1.85-10.17-0.88l-16.32-16.32
			c-2.724-2.721-3.099-7.006-0.89-10.16l15.88-22.63c2.919-4.146,3.162-9.612,0.62-14c-5.579-9.657-9.872-20.001-12.77-30.77
			c-1.312-4.88-5.333-8.558-10.31-9.43l-27.2-4.77c-3.788-0.66-6.554-3.945-6.56-7.79v-23.09c-0.004-3.852,2.765-7.148,6.56-7.81
			l27.2-4.77c4.977-0.872,8.998-4.55,10.31-9.43c2.896-10.78,7.189-21.134,12.77-30.8c2.542-4.388,2.299-9.854-0.62-14l-15.87-22.56
			c-2.222-3.152-1.85-7.446,0.88-10.17l16.33-16.33c2.722-2.725,7.01-3.096,10.16-0.88l22.63,15.88c4.146,2.92,9.612,3.162,14,0.62
			c9.661-5.577,20.008-9.87,30.78-12.77c4.88-1.312,8.558-5.333,9.43-10.31l4.77-27.2c1.24-7.072-3.488-13.81-10.56-15.05
			s-13.81,3.488-15.05,10.56l-3.38,19.3c-7.414,2.449-14.631,5.458-21.59,9l-16.05-11.26c-13.484-9.488-31.841-7.888-43.48,3.79
			l-16.38,16.27c-11.667,11.645-13.262,29.996-3.78,43.48l11.26,16.05c-3.543,6.961-6.552,14.182-9,21.6l-19.3,3.38
			C11.802,275.248-0.02,289.344,0,305.81v23.09c-0.021,16.482,11.823,30.589,28.06,33.42l19.3,3.39
			c2.448,7.414,5.457,14.632,9,21.59l-11.3,16.05c-9.479,13.486-7.88,31.837,3.79,43.48l16.33,16.32
			c11.643,11.671,29.997,13.266,43.48,3.78l16-11.26c6.959,3.542,14.176,6.55,21.59,9l3.38,19.3
			c2.848,16.244,16.978,28.078,33.47,28.03h23.09c16.486,0.02,30.593-11.829,33.42-28.07l3.39-19.3
			c7.414-2.449,14.632-5.458,21.59-9l16.06,11.26c13.485,9.484,31.839,7.884,43.48-3.79l16.33-16.33
			c11.67-11.643,13.269-29.994,3.79-43.48l-11.25-16c3.542-6.959,6.55-14.176,9-21.59l19.3-3.39
			C368.372,361.07,373.1,354.332,371.86,347.26z"/>
	</g>
</g>
<g>
	<g>
		<path d="M487.6,118l-13.6-2.38c-1.699-4.904-3.703-9.697-6-14.35L476,90c8.242-11.72,6.853-27.671-3.29-37.79L459.83,39.3
			C449.706,29.136,433.731,27.742,422,36l-11.31,7.93c-4.653-2.298-9.446-4.302-14.35-6L394,24.39
			C391.538,10.272,379.271-0.023,364.94,0h-18.19c-14.33-0.018-26.593,10.282-29.05,24.4L315.31,38
			c-4.904,1.698-9.697,3.702-14.35,6l-11.31-8c-11.72-8.242-27.671-6.853-37.79,3.29L239,52.17
			c-10.164,10.124-11.558,26.099-3.3,37.83l7.93,11.31c-2.298,4.653-4.302,9.446-6,14.35L224.08,118
			c-14.114,2.462-24.408,14.723-24.39,29.05v18.19c-0.028,14.334,10.269,26.607,24.39,29.07l13.59,2.38
			c1.698,4.904,3.702,9.697,6,14.35l-7.94,11.31c-8.243,11.716-6.863,27.664,3.27,37.79L251.86,273
			c10.121,10.149,26.078,11.538,37.8,3.29l11.34-7.93c4.654,2.297,9.446,4.301,14.35,6l2.39,13.6
			c2.462,14.114,14.723,24.408,29.05,24.39h18.19c14.331,0,26.582-10.317,29.02-24.44l2.38-13.59c4.904-1.698,9.697-3.702,14.35-6
			L422,276.3c11.73,8.262,27.708,6.868,37.83-3.3l12.87-12.87c10.137-10.117,11.529-26.059,3.3-37.78L468.05,211
			c2.297-4.654,4.301-9.446,6-14.35l13.6-2.39c14.083-2.476,24.352-14.711,24.35-29.01v-18.19
			C512.023,132.726,501.722,120.458,487.6,118z M486,165.28c0.001,1.697-1.219,3.148-2.89,3.44l-21.44,3.76
			c-4.977,0.872-8.998,4.55-10.31,9.43c-2.224,8.256-5.515,16.186-9.79,23.59c-2.542,4.388-2.3,9.854,0.62,14l12.51,17.84
			c0.978,1.389,0.813,3.281-0.39,4.48l-12.86,12.86c-1.213,1.165-3.083,1.299-4.45,0.32l-17.87-12.5
			c-4.146-2.92-9.612-3.162-14-0.62c-7.404,4.276-15.334,7.567-23.59,9.79c-4.87,1.328-8.531,5.356-9.39,10.33l-3.76,21.44
			c-0.292,1.671-1.743,2.891-3.44,2.89h-18.2c-1.697,0.001-3.148-1.219-3.44-2.89L339.54,262c-0.872-4.977-4.55-8.998-9.43-10.31
			c-8.259-2.224-16.192-5.515-23.6-9.79c-4.388-2.542-9.854-2.3-14,0.62L274.72,255c-1.389,0.978-3.281,0.813-4.48-0.39
			l-12.86-12.86c-1.203-1.199-1.368-3.091-0.39-4.48l12.51-17.84c2.92-4.146,3.162-9.612,0.62-14
			c-4.277-7.403-7.568-15.334-9.79-23.59c-1.331-4.866-5.358-8.523-10.33-9.38l-21.44-3.76c-1.671-0.292-2.891-1.743-2.89-3.44
			l0.01-18.2c-0.001-1.697,1.219-3.148,2.89-3.44l21.43-3.77c4.977-0.872,8.998-4.55,10.31-9.43
			c2.223-8.256,5.514-16.186,9.79-23.59c2.542-4.388,2.3-9.854-0.62-14L257,75c-0.978-1.389-0.813-3.281,0.39-4.48l12.87-12.87
			c1.199-1.203,3.091-1.368,4.48-0.39l17.83,12.51c4.146,2.919,9.612,3.162,14,0.62c7.404-4.276,15.334-7.567,23.59-9.79
			c4.88-1.312,8.558-5.333,9.43-10.31l3.76-21.44c0.306-1.641,1.731-2.835,3.4-2.85h18.19c1.697-0.001,3.148,1.219,3.44,2.89
			l3.76,21.44c0.872,4.977,4.55,8.998,9.43,10.31c8.256,2.222,16.187,5.513,23.59,9.79c4.388,2.542,9.854,2.3,14-0.62L437,57.3
			c1.389-0.978,3.281-0.813,4.48,0.39l12.87,12.87c1.169,1.204,1.316,3.068,0.35,4.44l-12.51,17.87c-2.92,4.146-3.162,9.612-0.62,14
			c4.275,7.404,7.566,15.334,9.79,23.59c1.312,4.88,5.333,8.558,10.31,9.43l21.44,3.76c1.671,0.292,2.891,1.743,2.89,3.44V165.28z"
			/>
	</g>
</g>
<g>
	<g>
		<path d="M355.84,94.05c-34.302,0-62.11,27.808-62.11,62.11c0.039,34.286,27.824,62.071,62.11,62.11
			c34.302,0,62.11-27.808,62.11-62.11C417.95,121.858,390.142,94.05,355.84,94.05z M355.84,192.27
			c-19.943,0-36.11-16.167-36.11-36.11c-0.005-19.953,16.157-36.138,36.11-36.16v0.05c19.943,0,36.11,16.167,36.11,36.11
			C391.95,176.103,375.783,192.27,355.84,192.27z"/>
	</g>
</g>
<g>
</g>
<g>
</g>
<g>
</g>
<g>
</g>
<g>
</g>
<g>
</g>
<g>
</g>
<g>
</g>
<g>
</g>
<g>
</g>
<g>
</g>
<g>
</g>
<g>
</g>
<g>
</g>
<g>
</g>
</svg>
