<svg id="Layer_1" enable-background="new 0 0 512 512" height="512" viewBox="0 0 512 512" width="512" xmlns="http://www.w3.org/2000/svg"><path d="m226 272.308h60v82.047h-60z" fill="#5766ce"/><path d="m256 272.307h30v82.047h-30z" fill="#3d4ec6"/><path d="m365.644 504.5h-219.288c-11.046 0-20-8.954-20-20v-110.371c0-11.046 8.954-20 20-20h219.289c11.046 0 20 8.954 20 20v110.371c-.001 11.046-8.955 20-20.001 20z" fill="#07a9f0"/><path d="m355.644 354.129v150.371h10c11.046 0 20-8.954 20-20v-110.371c0-11.046-8.954-20-20-20z" fill="#5766ce"/><path d="m286 424.376h-60c-27.614 0-50-22.386-50-50v-20.247h160v20.247c0 27.614-22.386 50-50 50z" fill="#f3f3f3"/><path d="m163.253 176.833c0 21.539-13.207 39-29.498 39s-25.755-20.052-25.755-41.591 9.464-36.409 25.755-36.409 29.498 17.461 29.498 39z" fill="#3d4ec6"/><path d="m348.747 176.833c0 21.539 13.207 39 29.498 39s25.755-20.052 25.755-41.591-9.464-36.409-25.755-36.409-29.498 17.461-29.498 39z" fill="#3d4ec6"/><path d="m148 189.571v-80.214c0-56.254 45.603-101.857 101.856-101.857h12.288c56.253 0 101.856 45.603 101.856 101.856v80.214c0 59.608-48.322 107.929-107.93 107.929h-.141c-59.607.001-107.929-48.321-107.929-107.928z" fill="#07a9f0"/><path d="m262.144 7.5h-12.288c-2.985 0-5.937.136-8.856.387 52.106 4.489 93 48.2 93 101.469v80.214c0 54.541-40.459 99.625-93 106.897 4.881.676 9.863 1.033 14.929 1.033h.141c59.608 0 107.93-48.322 107.93-107.929v-80.214c0-56.254-45.603-101.857-101.856-101.857z" fill="#5766ce"/><path d="m306 17.405v15.36c0 26.09-21.15 47.24-47.24 47.24h-5.52c-26.09 0-47.24-21.15-47.24-47.24v-15.36c13.28-6.35 28.16-9.9 43.86-9.9h12.28c15.7 0 30.58 3.55 43.86 9.9z" fill="#b5fcff"/><path d="m262.14 7.505h-12.28c-3.01 0-5.99.133-8.934.389 6.553.56 12.935 1.725 19.076 3.467 9.516 2.699 15.998 11.512 15.998 21.404 0 21.856-14.845 40.236-35 45.63 3.905 1.045 8.006 1.611 12.24 1.611h5.52c26.09 0 47.24-21.15 47.24-47.24v-15.36c-13.28-6.351-28.16-9.901-43.86-9.901z" fill="#71f6fc"/><path d="m207.749 324.138h96v29.991h-96z" fill="#07a9f0"/><path d="m273.749 324.138h30v29.991h-30z" fill="#5766ce"/><path d="m312 159.945h-112c-10.493 0-19-8.507-19-19 0-10.493 8.507-19 19-19h112c10.493 0 19 8.507 19 19 0 10.493-8.507 19-19 19z" fill="#b5fcff"/><path d="m312 121.945h-30c10.493 0 19 8.507 19 19 0 10.493-8.507 19-19 19h30c10.493 0 19-8.507 19-19 0-10.494-8.507-19-19-19z" fill="#71f6fc"/><path d="m300 504.5h-88v-22c0-16.569 13.431-30 30-30h28c16.569 0 30 13.431 30 30z" fill="#b5fcff"/><path d="m270 452.5h-28c-.335 0-.667.014-1 .025 16.104.529 29 13.742 29 29.975v22h30v-22c0-16.569-13.431-30-30-30z" fill="#71f6fc"/><path d="m367.093 221.207c3.571 1.402 7.321 2.123 11.147 2.123 21.835 0 33.26-24.695 33.26-49.09 0-26.674-13.056-43.91-33.26-43.91-2.271 0-4.528.259-6.74.767v-21.741c0-17.264-3.909-33.783-11.618-49.1-1.861-3.7-6.37-5.189-10.071-3.327-3.7 1.862-5.189 6.371-3.327 10.071 6.646 13.205 10.017 27.456 10.017 42.356v80.214c0 6.291-.582 12.448-1.693 18.422-.02.094-.038.188-.053.283-8.79 46.47-49.698 81.725-98.685 81.725h-.141c-48.987 0-89.894-35.255-98.683-81.725-.016-.094-.034-.189-.053-.283-1.112-5.973-1.693-12.131-1.693-18.422v-80.214c0-33.102 17.135-62.278 43-79.123v2.532c0 30.184 24.557 54.74 54.74 54.74h5.52c30.184 0 54.74-24.556 54.74-54.74v-2.605c5.615 3.658 10.881 7.946 15.711 12.826 2.913 2.944 7.662 2.969 10.606.055s2.969-7.662.056-10.606c-20.699-20.916-48.305-32.435-77.729-32.435h-12.287c-16.61 0-32.367 3.723-46.48 10.377-.418.156-.819.349-1.198.574-36.479 17.745-61.679 55.187-61.679 98.405v21.741c-2.213-.508-4.469-.767-6.74-.767-20.204 0-33.26 17.236-33.26 43.91 0 24.395 11.425 49.09 33.26 49.09 3.827 0 7.577-.721 11.147-2.123 10.361 36.307 38.093 65.363 73.593 77.565v17.866h-10.751c-4.143 0-7.5 3.358-7.5 7.5v22.491h-53.894c-15.163 0-27.5 12.336-27.5 27.5v110.371c0 15.164 12.337 27.5 27.5 27.5h173.51c4.143 0 7.5-3.358 7.5-7.5s-3.357-7.5-7.5-7.5h-12.365v-14.5c0-20.678-16.822-37.5-37.5-37.5h-28c-20.678 0-37.5 16.822-37.5 37.5v14.5h-58.145c-6.893 0-12.5-5.607-12.5-12.5v-110.371c0-6.893 5.607-12.5 12.5-12.5h22.145v12.747c0 9.624 2.427 19.149 7.017 27.546 1.986 3.635 6.542 4.97 10.179 2.984 3.634-1.987 4.97-6.544 2.983-10.178-3.388-6.198-5.179-13.236-5.179-20.352v-12.747h145v12.747c0 23.435-19.065 42.5-42.5 42.5h-60c-6.158 0-12.095-1.286-17.645-3.822-3.769-1.722-8.217-.063-9.938 3.704-1.722 3.767-.063 8.217 3.704 9.938 7.52 3.437 15.554 5.179 23.879 5.179h60c31.706 0 57.5-25.794 57.5-57.5v-12.747h22.145c6.893 0 12.5 5.607 12.5 12.5v110.372c0 6.893-5.607 12.5-12.5 12.5h-13.594c-4.143 0-7.5 3.358-7.5 7.5s3.357 7.5 7.5 7.5h13.594c15.163 0 27.5-12.336 27.5-27.5v-110.371c0-15.164-12.337-27.5-27.5-27.5h-54.396v-22.491c0-4.142-3.357-7.5-7.5-7.5h-10.249v-17.866c35.5-12.202 63.232-41.258 73.593-77.565zm11.147-75.877c13.463 0 18.26 14.934 18.26 28.91 0 16.757-6.83 34.09-18.26 34.09-2.709 0-5.398-.745-7.928-2.178.782-5.416 1.188-10.952 1.188-16.582v-42.687c2.172-1.032 4.428-1.553 6.74-1.553zm-116.096-130.33c12.694 0 24.996 2.485 36.356 7.225v10.539c0 21.913-17.827 39.74-39.74 39.74h-5.52c-21.913 0-39.74-17.828-39.74-39.74v-10.479c11.195-4.691 23.478-7.285 36.356-7.285zm-128.384 193.33c-11.43 0-18.26-17.333-18.26-34.09 0-13.976 4.797-28.91 18.26-28.91 2.313 0 4.568.521 6.74 1.553v42.687c0 5.629.406 11.166 1.188 16.582-2.53 1.433-5.219 2.178-7.928 2.178zm85.74 274.17c0-12.407 10.094-22.5 22.5-22.5h28c12.406 0 22.5 10.093 22.5 22.5v14.5h-73zm76.749-135.871h-81v-14.991h81zm-17.749-29.991h-45v-13.826c7.258 1.435 14.757 2.188 22.43 2.188h.141c7.672 0 15.172-.753 22.43-2.188v13.826z"/><path d="m268.978 234.238c-7.762 2.168-18.193 2.168-25.955 0-3.989-1.115-8.127 1.217-9.241 5.207-1.114 3.989 1.217 8.126 5.206 9.241 5.247 1.465 11.13 2.198 17.013 2.198s11.766-.732 17.013-2.198c3.989-1.114 6.32-5.251 5.206-9.241-1.116-3.989-5.245-6.321-9.242-5.207z"/><path d="m338.5 140.945c0-14.612-11.888-26.5-26.5-26.5h-112c-14.612 0-26.5 11.888-26.5 26.5s11.888 26.5 26.5 26.5h112c14.612 0 26.5-11.888 26.5-26.5zm-150 0c0-6.341 5.159-11.5 11.5-11.5h112c6.341 0 11.5 5.159 11.5 11.5s-5.159 11.5-11.5 11.5h-112c-6.341 0-11.5-5.159-11.5-11.5z"/></svg>