<svg id="Filled-Outline" height="512" viewBox="0 0 512 512" width="512" xmlns="http://www.w3.org/2000/svg"><g id="Wrench-screwdriver"><path d="m484.91 75.09a72 72 0 0 1 -101.24 85.24l-79.67 79.67-.69-.69a16.006 16.006 0 0 0 -22.62 0l-.69.69-24-24 12-12 81.18-81.18a72.028 72.028 0 0 1 87.73-95.73l-36.91 36.91a33.941 33.941 0 0 0 48 48z" fill="#808285"/><path d="m358.5 110.5a71.8 71.8 0 0 0 5.18 26.82l-93.18 93.18-14.5-14.5 93.18-93.18a72.028 72.028 0 0 1 87.73-95.73l-11.6 11.6a72.008 72.008 0 0 0 -66.81 71.81z" fill="#414042"/><path d="m488 96c0 1.75-.06 3.48-.19 5.19l-25.31 25.31a33.946 33.946 0 0 1 -54.13-8.37 33.952 33.952 0 0 0 39.63-6.13l36.91-36.91a71.861 71.861 0 0 1 3.09 20.91z" fill="#414042"/><path d="m448 464-12.69 12.69a16.006 16.006 0 0 1 -22.62 0l-172.69-172.69-.69-.69a16.006 16.006 0 0 1 0-22.62l.69-.69 40-40 .69-.69a16.006 16.006 0 0 1 22.62 0l.69.69 172.69 172.69a16.006 16.006 0 0 1 0 22.62z" fill="#d94736"/><path d="m458.31 453.69-23 23a16.006 16.006 0 0 1 -22.62 0l-173.38-173.38a16.006 16.006 0 0 1 0-22.62l23-23a16.006 16.006 0 0 0 0 22.62l173.38 173.38a16.006 16.006 0 0 0 22.62 0z" fill="#b82514"/><path d="m219.716 231.029h56.569v33.941h-56.569z" fill="#b82514" transform="matrix(.707 -.707 .707 .707 -102.725 248)"/><path d="m212 212 32-32 24 24-12 12-40 40-12 12-24-24z" fill="#d94736"/><path d="m208.5 215.5 24 24-16.5 16.5-12 12-24-24z" fill="#b82514"/><path d="m240 280-.69.69a16.006 16.006 0 0 0 0 22.62l.69.69-79.67 79.67a71.982 71.982 0 1 1 -37.51-34.49l81.18-81.18 12-12zm-108 136 4.66-16.84-15.2-8.62-8.62-15.2-16.84 4.66-16.84-4.66-8.62 15.2-15.2 8.62 4.66 16.84-4.66 16.84 15.2 8.62 8.62 15.2 16.84-4.66 16.84 4.66 8.62-15.2 15.2-8.62z" fill="#808285"/><path d="m216 256-93.18 93.18a72 72 0 0 0 -69.1 125.1 72 72 0 0 1 85.1-109.1l93.18-93.18z" fill="#414042"/><path d="m76.33 451.67 2.83 4.99 4.01-1.11zm55.34-55.34 3.88 6.84 1.11-4.01z" fill="#414042"/><path d="m80 48-8 24-24 8-24-40 16-16z" fill="#e4ebf0"/><path d="m61.33 75.56-13.33 4.44-24-40 16-16 10 6-10 10z" fill="#b4d7f0"/><g fill="#062d42"><path d="m140.606 392.2-13.277-7.53-7.53-13.277a8 8 0 0 0 -9.093-3.765l-14.706 4.072-14.706-4.07a8 8 0 0 0 -9.093 3.765l-7.53 13.277-13.277 7.528a8 8 0 0 0 -3.764 9.093l4.07 14.707-4.07 14.706a8 8 0 0 0 3.764 9.093l13.277 7.53 7.53 13.277a8 8 0 0 0 9.093 3.765l14.706-4.071 14.706 4.07a8 8 0 0 0 9.093-3.765l7.53-13.277 13.277-7.53a8 8 0 0 0 3.764-9.093l-4.07-14.705 4.069-14.706a8 8 0 0 0 -3.763-9.094zm-16.316 25.934 2.995 10.825-9.771 5.542a8 8 0 0 0 -3.013 3.013l-5.542 9.772-10.825-3a8 8 0 0 0 -4.268 0l-10.825 3-5.541-9.772a8 8 0 0 0 -3.013-3.013l-9.771-5.542 2.995-10.825a7.99 7.99 0 0 0 0-4.268l-2.995-10.825 9.771-5.542a8 8 0 0 0 3.013-3.013l5.542-9.772 10.825 3a8.01 8.01 0 0 0 4.268 0l10.825-3 5.542 9.772a8 8 0 0 0 3.013 3.013l9.771 5.542-2.995 10.825a7.99 7.99 0 0 0 -.001 4.268z"/><path d="m315.314 240 70.08-70.08a79.113 79.113 0 0 0 30.606 6.08 80.038 80.038 0 0 0 76.565-103.234 8 8 0 0 0 -13.312-3.333l-36.91 36.91a25.941 25.941 0 0 1 -36.686-36.686l36.91-36.91a8 8 0 0 0 -3.333-13.312 80.018 80.018 0 0 0 -99.31 101.327l-71.924 71.924-18.343-18.343a8 8 0 0 0 -11.314 0l-26.343 26.343-130.847-130.847 6.437-19.309a8 8 0 0 0 -3.474-9.39l-40-24a8 8 0 0 0 -9.773 1.2l-16 16a8 8 0 0 0 -1.2 9.773l24 40a7.993 7.993 0 0 0 9.39 3.473l19.309-6.436 130.844 130.85-26.343 26.343a8 8 0 0 0 0 11.314l18.343 18.343-71.923 71.924a79.969 79.969 0 1 0 49.159 45.468l70.078-70.078 167.033 167.032a24 24 0 0 0 33.933 0l41.382-41.381a24.026 24.026 0 0 0 0-33.933zm-263.755-169.619-17.486-29.141 7.167-7.166 29.141 17.484-4.7 14.117zm305.041 49.457a64 64 0 0 1 59.4-87.838q2.272 0 4.528.158l-26.185 26.185a41.941 41.941 0 0 0 59.314 59.314l26.185-26.185q.158 2.254.158 4.528a64.072 64.072 0 0 1 -64 64 63.313 63.313 0 0 1 -28.732-6.815 8 8 0 0 0 -9.255 1.488l-74.75 74.75a24.106 24.106 0 0 0 -22.526 0l-13.423-13.423 6.343-6.343 81.18-81.18a8 8 0 0 0 1.763-8.639zm-129.287 136.162 28.687-28.686 12.687 12.686-28.687 28.686zm16.687-64.687 12.687 12.687-6.344 6.343-40 40-6.343 6.344-12.687-12.687zm-90.813 195.958a63.245 63.245 0 0 1 6.813 28.729 64 64 0 1 1 -40.162-59.4 8 8 0 0 0 8.64-1.767l81.179-81.18 6.343-6.339 13.432 13.432a24.093 24.093 0 0 0 0 22.508l-74.759 74.759a8 8 0 0 0 -1.486 9.258zm317.846 42.382-23.033 23.033-150.343-150.343-11.314 11.314 150.343 150.343-7.034 7.034a8 8 0 0 1 -11.3 0l-172.697-172.693-.688-.687a8 8 0 0 1 0-11.305l.69-.69 40-40 .691-.691a8 8 0 0 1 11.306 0l173.379 173.378a8 8 0 0 1 0 11.307z"/></g></g></svg>